<svg width="16" height="12" viewBox="0 0 16 12" fill="none" xmlns="http://www.w3.org/2000/svg">
<path d="M15.1995 1.83737e-06L0.79911 5.78444e-07C0.653313 0.000458329 0.510402 0.0407396 0.385758 0.11651C0.261114 0.19228 0.159458 0.300667 0.091733 0.430008C0.0240078 0.55935 -0.00722214 0.704745 0.00140478 0.850544C0.0100317 0.996342 0.0581875 1.13702 0.140691 1.25744L7.34089 11.676C7.6393 12.108 8.35772 12.108 8.65693 11.676L15.8571 1.25744C15.9405 1.13727 15.9894 0.996523 15.9984 0.850482C16.0075 0.704441 15.9765 0.558696 15.9087 0.429081C15.8409 0.299466 15.739 0.19094 15.614 0.115293C15.4889 0.0396452 15.3456 -0.000228939 15.1995 1.83737e-06Z" fill="#43C2DD"/>
</svg>
